<svg id="Calque_1" data-name="Calque 1" xmlns="http://www.w3.org/2000/svg" viewBox="0 0 500 500"><defs><style>.cls-1{fill:#fff;}.cls-2{fill:#1d1d1b;}.cls-3{fill:#fec900;}</style></defs><circle class="cls-1" cx="250.83" cy="249.57" r="218.99"/><g id="noir"><path class="cls-2" d="M446.45,194.24a12.26,12.26,0,0,0-5.81-7.39l-67-37.46A12.26,12.26,0,0,0,357,154.1l-8.85,15.8a12.21,12.21,0,0,0,4.43,16.56l14.21,8.42-10,3.57a117.33,117.33,0,0,0-105.55-66.29h-.42c-31.26.11-60.75,12.71-83,35.48s-34.25,52.58-33.68,83.86a117.22,117.22,0,0,0,28.43,74.34l-2,2.13-7.08-6.61a12.13,12.13,0,0,0-8.4-3.35,12.3,12.3,0,0,0-8.95,3.89l-18.49,19.77a12,12,0,0,0-3.33,8.8,12.24,12.24,0,0,0,3.88,8.56l7.11,6.64-4.65,5a12.23,12.23,0,0,0,.55,17.34l17.95,16.77a12.11,12.11,0,0,0,8.35,3.34H148a12.16,12.16,0,0,0,8.57-3.88l4.68-5,5.85,5.47a12.26,12.26,0,0,0,17.33-.59l18.52-19.8a12.26,12.26,0,0,0-.59-17.3l-5.85-5.48,5.53-5.91a117.22,117.22,0,0,0,166.24-99.31,12.29,12.29,0,0,0,6.07,10.45L390,275.94a12.26,12.26,0,0,0,16.83-4.53l38.43-67.79a12.23,12.23,0,0,0,1.61-6.05A12.5,12.5,0,0,0,446.45,194.24Zm-78.39,45.6,9.72-3.52-7.92,13.74a12.14,12.14,0,0,0-1.55,4.64c.09-1.78.13-3.58.13-5.39C368.44,246.12,368.31,242.93,368.06,239.84Zm76-36.91-38.43,67.79a10.88,10.88,0,0,1-14.94,4L375,265.57a10.91,10.91,0,0,1-3.94-14.82l9.8-17L366.6,238.9l0,.53c.28,3.22.42,6.54.42,9.88A115.82,115.82,0,0,1,202.12,354.16l-.45-.22-7.15,7.65,6.85,6.42a10.89,10.89,0,0,1,.52,15.36l-18.52,19.8a10.89,10.89,0,0,1-15.37.53l-6.87-6.42-5.61,6a10.75,10.75,0,0,1-7.61,3.44h-.39a10.7,10.7,0,0,1-7.4-3l-18-16.78a10.86,10.86,0,0,1-.5-15.39l5.6-6L119.15,358a10.83,10.83,0,0,1-3.44-7.6,10.62,10.62,0,0,1,3-7.8l18.48-19.78a10.93,10.93,0,0,1,7.95-3.45,10.75,10.75,0,0,1,7.45,3l8.1,7.55,3.78-4-.41-.47a115.9,115.9,0,0,1-28.49-73.94c-.57-30.9,11.26-60.34,33.28-82.87s51.16-35,82.06-35.07h.41A116,116,0,0,1,355.86,199.6l.26.56,13.89-5-16.73-9.92a10.82,10.82,0,0,1-3.93-14.69l8.85-15.81A10.9,10.9,0,0,1,373,150.59l67,37.46a11,11,0,0,1,3.24,2.78,10.7,10.7,0,0,1,1.92,3.79,10.88,10.88,0,0,1,.41,2.95A10.76,10.76,0,0,1,444.1,202.93Z"/><path class="cls-3" d="M445.12,194.62a10.7,10.7,0,0,0-1.92-3.79,11,11,0,0,0-3.24-2.78l-67-37.46a10.9,10.9,0,0,0-14.79,4.18l-8.85,15.81a10.82,10.82,0,0,0,3.93,14.69L370,195.19l-13.89,5-.26-.56a116,116,0,0,0-104.58-66.07h-.41c-30.9.11-60,12.57-82.06,35.07s-33.85,52-33.28,82.87A115.9,115.9,0,0,0,164,325.41l.41.47-3.78,4-8.1-7.55a10.75,10.75,0,0,0-7.45-3,10.93,10.93,0,0,0-7.95,3.45l-18.48,19.78a10.62,10.62,0,0,0-3,7.8,10.83,10.83,0,0,0,3.44,7.6l8.12,7.59-5.6,6a10.86,10.86,0,0,0,.5,15.39l18,16.78a10.7,10.7,0,0,0,7.4,3h.39a10.75,10.75,0,0,0,7.61-3.44l5.61-6L168,403.7a10.89,10.89,0,0,0,15.37-.53l18.52-19.8a10.89,10.89,0,0,0-.52-15.36l-6.85-6.42,7.15-7.65.45.22A115.82,115.82,0,0,0,367.06,249.31c0-3.34-.14-6.66-.42-9.88l0-.53,14.25-5.15-9.8,17A10.91,10.91,0,0,0,375,265.57l15.74,9.18a10.88,10.88,0,0,0,14.94-4l38.43-67.79a10.76,10.76,0,0,0,1.43-5.36A10.88,10.88,0,0,0,445.12,194.62ZM391.76,273,376,263.79a8.84,8.84,0,0,1-3.19-12l12.63-21.9-21.09,7.63a111.2,111.2,0,0,1,.61,11.8A113.74,113.74,0,0,1,195.2,348.25l4.78,4.47-8.38,9,8.35,7.83a8.81,8.81,0,0,1,.43,12.44l-18.52,19.8a8.82,8.82,0,0,1-12.46.43L161,394.36l-7,7.52a8.64,8.64,0,0,1-6.15,2.78h-.33a8.65,8.65,0,0,1-6-2.39l-18-16.78a8.81,8.81,0,0,1-.41-12.46l7-7.53-9.63-9a8.79,8.79,0,0,1-2.79-6.15,8.63,8.63,0,0,1,2.39-6.32l18.5-19.79a8.87,8.87,0,0,1,6.44-2.79,8.66,8.66,0,0,1,6,2.4l9.63,9,6.49-6.92a113.59,113.59,0,0,1-29.65-74.47c-.55-30.35,11.06-59.26,32.7-81.39s50.24-34.34,80.59-34.45h.39A113.81,113.81,0,0,1,355,202.75l19.81-7.09-20.51-12.17a8.78,8.78,0,0,1-3.18-11.9L360,155.78a8.82,8.82,0,0,1,12-3.38L439,189.86a8.78,8.78,0,0,1,4.18,5.31,9.07,9.07,0,0,1,.33,2.4,8.71,8.71,0,0,1-1.16,4.34l-38.43,67.8a8.91,8.91,0,0,1-5.37,4.15A8.8,8.8,0,0,1,391.76,273Z"/></g><path class="cls-2" d="M443.46,197.57a8.71,8.71,0,0,1-1.16,4.34l-38.43,67.8a8.91,8.91,0,0,1-5.37,4.15,8.8,8.8,0,0,1-6.74-.9L376,263.79a8.84,8.84,0,0,1-3.19-12l12.63-21.9-21.09,7.63a111.2,111.2,0,0,1,.61,11.8A113.74,113.74,0,0,1,195.2,348.25l4.78,4.47-8.38,9,8.35,7.83a8.81,8.81,0,0,1,.43,12.44l-18.52,19.8a8.82,8.82,0,0,1-12.46.43L161,394.36l-7,7.52a8.64,8.64,0,0,1-6.15,2.78h-.33a8.65,8.65,0,0,1-6-2.39l-18-16.78a8.81,8.81,0,0,1-.41-12.46l7-7.53-9.63-9a8.79,8.79,0,0,1-2.79-6.15,8.63,8.63,0,0,1,2.39-6.32l18.5-19.79a8.87,8.87,0,0,1,6.44-2.79,8.66,8.66,0,0,1,6,2.4l9.63,9,6.49-6.92a113.59,113.59,0,0,1-29.65-74.47c-.55-30.35,11.06-59.26,32.7-81.39s50.24-34.34,80.59-34.45h.39A113.81,113.81,0,0,1,355,202.75l19.81-7.09-20.51-12.17a8.78,8.78,0,0,1-3.18-11.9L360,155.78a8.82,8.82,0,0,1,12-3.38L439,189.86a8.78,8.78,0,0,1,4.18,5.31A9.07,9.07,0,0,1,443.46,197.57Z"/><path class="cls-3" d="M324.48,176.32a103.27,103.27,0,0,0-73.83-30.76h-.89c-56.34.49-102.55,46.71-103,103A103.93,103.93,0,0,0,250.67,353.44h.92c56.32-.5,102.53-46.72,103-103v-.93A103.16,103.16,0,0,0,324.48,176.32Zm14.58,72.44c-.91,2.29-3,2.93-4.48,3.39-.76.23-1.54.47-1.67.79-.06.14-.12.6.54,1.81.43.77.91,1.5,1.37,2.2,1.71,2.61,3.48,5.3.16,8.24-2.24,2-1.81,2.51-1,3.54.07.09.14.17.2.26a4.18,4.18,0,0,1,1,3.5c-.32,1.67-1.77,3.22-4.43,4.73-.86.49-.57,2.41-.24,4.62.54,3.56,1.27,8.43-1.73,12.82-1.32,1.94-5,2.72-9.61,3.7-6.61,1.41-14.84,3.16-18.46,8.87A8,8,0,0,1,294,311a7.93,7.93,0,0,1-1.37-.12,277.36,277.36,0,0,0-28.27-3.41h0l-6.62-.35h0c-16.3-.61-29.52.8-39.28,4.17-1,.35-2.31.8-3.67,1.14a29.47,29.47,0,0,1-7.07,1.09,10.52,10.52,0,0,1-6.12-1.7c-3.48-2.4-5.56-7.41-6.54-15.77-.56-2.39-6-2.75-11.2-3.11-6-.4-12.15-.81-14.83-4a5.94,5.94,0,0,1-1.28-4.62c.89-8.24-1.3-10.95-2.28-11.74a4.81,4.81,0,0,1-1.88-4.09,5.17,5.17,0,0,1,1.55-3.3c1.3-1.26,1.92-2.38,1.76-3.17a1.93,1.93,0,0,0-1.11-1.15l-.13-.06c-1.94-1.12-3-2.35-3.17-3.77s.47-2.84,2-4.41l.13-.12a2.09,2.09,0,0,1,.15-.15l-.23-.14c-1.3-.43-5.25-2-5.75-5-.31-1.83.76-3.69,3.17-5.54l1.93-1.47c6-4.5,7.41-5.57,7.84-15.17a27.54,27.54,0,0,0-.21-4.78c-.73-5.7-.8-20.13,14.22-31.05h0a116.63,116.63,0,0,1,38.3-22.46A87.84,87.84,0,0,1,264,162.24c16.19,2.06,31.77,9,46.32,20.79l.3.25.26.27a57.13,57.13,0,0,1,14.21,26.53,19,19,0,0,1,.49,4.36,21.28,21.28,0,0,1-.32,3.74,13.8,13.8,0,0,0-.2,2c-.14,4.38.9,8.27,2.92,11,1.39,1.85,3.07,3.69,4.69,5.48C336.68,241.07,340.46,245.23,339.06,248.76Z"/><path class="cls-1" d="M337.47,248.12c-.61,1.53-2,2-3.4,2.38-1.14.35-2.32.71-2.76,1.79-.34.84-.14,1.88.63,3.28.46.84,1,1.59,1.44,2.32,1.84,2.82,2.57,4.14.46,6-3.21,2.84-2.38,4.42-1.15,5.91l.18.24a2.53,2.53,0,0,1,.69,2.1c-.21,1.13-1.42,2.33-3.59,3.57-1.89,1.07-1.52,3.53-1.09,6.37.52,3.46,1.17,7.76-1.45,11.59-.93,1.37-4.63,2.15-8.55,3-6.92,1.47-15.54,3.3-19.55,9.63a6.32,6.32,0,0,1-6.41,2.85,277.87,277.87,0,0,0-27.69-3.37c-1.4-31,2.66-32.92,4.85-34a4.07,4.07,0,0,0,1.62-1.15l.07-.08a2.08,2.08,0,0,1,.25-.3c17.22-15.29,20.84-33.14,20.84-45.42a58.83,58.83,0,0,0-2.1-15.9l4.63-3.53-10-15.4,24.33-5.21a55.34,55.34,0,0,1,13.68,25.64,16.55,16.55,0,0,1,.44,4,19.63,19.63,0,0,1-.28,3.42,14.91,14.91,0,0,0-.23,2.33c-.15,4.76,1,9,3.26,12,1.44,1.92,3.15,3.79,4.8,5.61C335,241.82,338.46,245.6,337.47,248.12Z"/><polygon class="cls-3" points="310.02 183.89 310.02 183.9 310.01 183.89 310.02 183.89"/><path class="cls-1" d="M261.86,270.13c-2,4-4.46,13.52-4.08,36.12-13.62-.51-28.23.29-39.6,4.22-1.18.41-2.38.81-3.6,1.11-10.14,2.59-16.66,1.54-18.66-15.68-1.5-7-28.55.18-27.31-11.51.87-8.1-1.13-11.33-2.6-12.5a3.94,3.94,0,0,1-1.56-3.35,4.3,4.3,0,0,1,1.29-2.75c4.39-4.26.35-5.75.35-5.75-3.67-2.11-3.37-4.39-1-6.82.33-.34,1.32-1.05-.23-1.81-3-1-8.76-4.15-2.38-9,7.59-5.82,9.6-6.28,10.1-17.29a27.91,27.91,0,0,0-.21-4.92c-.65-5-1-19.47,13.9-30.27h0c.39.25,12.5,7.78,24.23,9.79a44.72,44.72,0,0,1,23.17,11.13c9.34,8.74,20.51,24.15,28.78,51A11.35,11.35,0,0,1,261.86,270.13Z"/><path class="cls-2" d="M310.56,183.23l-.24-.2.3.25ZM233.7,210.81a44.72,44.72,0,0,0-23.17-11.13c-11.73-2-23.84-9.54-24.23-9.79h0c-14.87,10.8-14.55,25.23-13.9,30.27a27.91,27.91,0,0,1,.21,4.92c-.5,11-2.51,11.47-10.1,17.29-6.38,4.89-.64,8,2.38,9,1.55.76.56,1.47.23,1.81-2.4,2.43-2.7,4.71,1,6.82,0,0,4,1.49-.35,5.75a4.3,4.3,0,0,0-1.29,2.75,3.94,3.94,0,0,0,1.56,3.35c1.47,1.17,3.47,4.4,2.6,12.5-1.24,11.69,25.81,4.47,27.31,11.51,2,17.22,8.52,18.27,18.66,15.68,1.22-.3,2.42-.7,3.6-1.11,11.37-3.93,26-4.73,39.6-4.22-.38-22.6,2.12-32.13,4.08-36.12a11.35,11.35,0,0,0,.62-8.32C254.21,235,243,219.55,233.7,210.81Zm27.38,58.94c-2.08,4.23-4.47,13.83-4.17,35.61-16.11-.53-29.23.91-39,4.29-1,.34-2.23.77-3.52,1.1-5.84,1.49-9.26,1.38-11.79-.36-3.05-2.1-4.89-6.73-5.81-14.59v-.08c-.79-3.7-6.62-4.09-12.79-4.5-5.35-.36-11.41-.77-13.63-3.4a4.24,4.24,0,0,1-.87-3.34c.93-8.76-1.43-12.07-2.92-13.26a3.06,3.06,0,0,1-1.24-2.61,3.39,3.39,0,0,1,1-2.2c1.79-1.74,2.54-3.34,2.24-4.76a3.56,3.56,0,0,0-2.11-2.38c-1.4-.82-2.16-1.65-2.27-2.48s.4-1.82,1.54-3l.09-.09a1.92,1.92,0,0,0,.75-1.64,2.16,2.16,0,0,0-1.31-1.45l-.11,0c-2-.65-4.38-2-4.65-3.64-.25-1.44,1.23-2.91,2.52-3.9L165,241.6c6-4.53,8.05-6.06,8.53-16.48a30,30,0,0,0-.23-5.07c-.68-5.34-.75-18.78,13.09-29.12,2.44,1.47,13.3,7.76,24,9.6a43.87,43.87,0,0,1,22.73,10.9c12.08,11.31,21.69,28.34,28.54,50.64A10.34,10.34,0,0,1,261.08,269.75Z"/><path class="cls-2" d="M332.67,236.67c-1.62-1.79-3.3-3.63-4.69-5.48-2-2.69-3.06-6.58-2.92-11a13.8,13.8,0,0,1,.2-2,21.28,21.28,0,0,0,.32-3.74,19,19,0,0,0-.49-4.36,57.13,57.13,0,0,0-14.21-26.53l-.26-.27-.3-.25c-14.55-11.74-30.13-18.73-46.32-20.79a87.84,87.84,0,0,0-39.94,4.52,116.63,116.63,0,0,0-38.3,22.46h0c-15,10.92-14.95,25.35-14.22,31.05a27.54,27.54,0,0,1,.21,4.78c-.43,9.6-1.86,10.67-7.84,15.17L162,241.69c-2.41,1.85-3.48,3.71-3.17,5.54.5,3,4.45,4.54,5.75,5l.23.14a2.09,2.09,0,0,0-.15.15l-.13.12c-1.55,1.57-2.21,3-2,4.41s1.23,2.65,3.17,3.77l.13.06A1.93,1.93,0,0,1,166.9,262c.16.79-.46,1.91-1.76,3.17a5.17,5.17,0,0,0-1.55,3.3,4.81,4.81,0,0,0,1.88,4.09c1,.79,3.17,3.5,2.28,11.74a5.94,5.94,0,0,0,1.28,4.62c2.68,3.2,8.85,3.61,14.83,4,5.23.36,10.64.72,11.2,3.11,1,8.36,3.06,13.37,6.54,15.77a10.52,10.52,0,0,0,6.12,1.7,29.47,29.47,0,0,0,7.07-1.09c1.36-.34,2.68-.79,3.67-1.14,9.76-3.37,23-4.78,39.28-4.17h0l6.62.35h0a277.36,277.36,0,0,1,28.27,3.41A7.93,7.93,0,0,0,294,311a8,8,0,0,0,6.78-3.75c3.62-5.71,11.85-7.46,18.46-8.87,4.63-1,8.29-1.76,9.61-3.7,3-4.39,2.27-9.26,1.73-12.82-.33-2.21-.62-4.13.24-4.62,2.66-1.51,4.11-3.06,4.43-4.73a4.18,4.18,0,0,0-1-3.5c-.06-.09-.13-.17-.2-.26-.85-1-1.28-1.55,1-3.54,3.32-2.94,1.55-5.63-.16-8.24-.46-.7-.94-1.43-1.37-2.2-.66-1.21-.6-1.67-.54-1.81.13-.32.91-.56,1.67-.79,1.51-.46,3.57-1.1,4.48-3.39C340.46,245.23,336.68,241.07,332.67,236.67Zm4.8,11.45c-.61,1.53-2,2-3.4,2.38-1.14.35-2.32.71-2.76,1.79-.34.84-.14,1.88.63,3.28.46.84,1,1.59,1.44,2.32,1.84,2.82,2.57,4.14.46,6-3.21,2.84-2.38,4.42-1.15,5.91l.18.24a2.53,2.53,0,0,1,.69,2.1c-.21,1.13-1.42,2.33-3.59,3.57-1.89,1.07-1.52,3.53-1.09,6.37.52,3.46,1.17,7.76-1.45,11.59-.93,1.37-4.63,2.15-8.55,3-6.92,1.47-15.54,3.3-19.55,9.63a6.32,6.32,0,0,1-6.41,2.85,277.87,277.87,0,0,0-27.69-3.37c-1.4-31,2.66-32.92,4.85-34a4.07,4.07,0,0,0,1.62-1.15l.07-.08a2.08,2.08,0,0,1,.25-.3c17.22-15.29,20.84-33.14,20.84-45.42a58.83,58.83,0,0,0-2.1-15.9l4.63-3.53-10-15.4,24.33-5.21a55.34,55.34,0,0,1,13.68,25.64,16.55,16.55,0,0,1,.44,4,19.63,19.63,0,0,1-.28,3.42,14.91,14.91,0,0,0-.23,2.33c-.15,4.76,1,9,3.26,12,1.44,1.92,3.15,3.79,4.8,5.61C335,241.82,338.46,245.6,337.47,248.12ZM310,183.9h0ZM218.18,310.47c-1.18.41-2.38.81-3.6,1.11-10.14,2.59-16.66,1.54-18.66-15.68-1.5-7-28.55.18-27.31-11.51.87-8.1-1.13-11.33-2.6-12.5a3.94,3.94,0,0,1-1.56-3.35,4.3,4.3,0,0,1,1.29-2.75c4.39-4.26.35-5.75.35-5.75-3.67-2.11-3.37-4.39-1-6.82.33-.34,1.32-1.05-.23-1.81-3-1-8.76-4.15-2.38-9,7.59-5.82,9.6-6.28,10.1-17.29a27.91,27.91,0,0,0-.21-4.92c-.65-5-1-19.47,13.9-30.27h0c.39.25,12.5,7.78,24.23,9.79a44.72,44.72,0,0,1,23.17,11.13c9.34,8.74,20.51,24.15,28.78,51a11.35,11.35,0,0,1-.62,8.32c-2,4-4.46,13.52-4.08,36.12C244.16,305.74,229.55,306.54,218.18,310.47Z"/><path class="cls-2" d="M183,229a.75.75,0,0,1,.08,1.38,4.25,4.25,0,0,1-2.78.32c-2.37-.45-2.93-1.29-3.08-3.49a.76.76,0,0,1,1.16-.7A25.49,25.49,0,0,0,183,229Z"/><path class="cls-1" d="M239.21,172.41s40.1-.85,40.52,79.77L277.92,254S281.44,186.92,239.21,172.41Z"/><path class="cls-1" d="M269.35,262.63l-3,2.56c-6.82-69.53-67.61-81.29-67.61-81.29l5-3.21C265.57,198.17,269.35,262.63,269.35,262.63Z"/><path class="cls-2" d="M175.93,218.82c2.41-.23,8.42.21,12.63,9.27a26.49,26.49,0,0,0-12.46-5.48,1.26,1.26,0,0,1-1.1-1.16c0-.43-.11-.89-.14-1.35A1.21,1.21,0,0,1,175.93,218.82Z"/><path class="cls-1" d="M275.69,192.25c.36.4,14.41,16,8.31,50.55C284,242.8,282.08,204.42,275.69,192.25Z"/><path class="cls-1" d="M219.81,172.73c46.07,7.68,56.54,83.39,56.54,83.39l-3,2.66c-13.87-82.74-59.63-83.59-59.63-83.59Z"/><path class="cls-2" d="M245.93,238.8a.78.78,0,0,0-.56-.54l-.2,0a.81.81,0,0,0-1,.88c1.54,13.34-12,11.9-11.88,4.41.08-6.33,4.68-7.74,6.33-8a.83.83,0,0,0,.66-.69l0-.18a.81.81,0,0,0-.64-.9c-5.57-1.28-12.73,1.79-11.72,10.63,1,9.24,9.95,12.89,16.28,8.69C248.78,249.31,246.55,240.8,245.93,238.8Z"/><path class="cls-2" d="M319.44,225l-5,3.2a.8.8,0,0,0,.45,1.48l5.27-.08a.82.82,0,0,0,.79-.88l-.27-3.12A.81.81,0,0,0,319.44,225Z"/><path class="cls-2" d="M321.28,217.66s-7.84-1.73-14.41,7.21c0,0,7.05-6.94,14.2-4.57Z"/><path class="cls-2" d="M248.47,444.72l.28-12.11a9.85,9.85,0,0,1-2.44,3.74,6,6,0,0,1-4.28,1.29,9.2,9.2,0,0,1-4.86-1.24,6.91,6.91,0,0,1-2.62-3.17,15.06,15.06,0,0,1-1.06-4.67,52.84,52.84,0,0,1-.15-5.72l.44-19.3a16.55,16.55,0,0,1,2-8.24q1.91-3.12,6.25-3a7.75,7.75,0,0,1,4.92,1.49,8.69,8.69,0,0,1,2.59,3.89l.11-4.73,10.78.24L259.24,445Zm-2.2-15.27a2,2,0,0,0,2-1.41,11.48,11.48,0,0,0,.67-4l.43-18.73a11,11,0,0,0-.39-3.11,2,2,0,0,0-2-1.57,2,2,0,0,0-2.2,1.4,10.84,10.84,0,0,0-.51,3.16l-.43,18.67C243.77,427.53,244.58,429.41,246.27,429.45Z"/><path class="cls-2" d="M284.45,434.82a8.7,8.7,0,0,1-5.62-.36,7.37,7.37,0,0,1-3.34-3.53,25.28,25.28,0,0,1-1.92-5.94l-6.65-32.39,10.44-2.14,6.4,31.17a11.42,11.42,0,0,0,1.16,3.55,1.84,1.84,0,0,0,2.12.64,1.94,1.94,0,0,0,1.75-1.87,14.32,14.32,0,0,0-.35-3.83l-6.3-30.65,10.35-2.12,8.94,43.49L291.05,433l-.95-4.63a10.92,10.92,0,0,1-1.58,4.28A6.3,6.3,0,0,1,284.45,434.82Z"/><path class="cls-2" d="M297.72,382.26l-3.26-8.21,9.86-3.9,3.25,8.2Zm17.36,43.81-16.36-41.28,9.85-3.91,16.37,41.28Z"/><path class="cls-2" d="M367.48,397.29q-10.41,8.22-18.94-2.59l-11-14q-3.88-4.92-3.44-10t5.32-9q4.9-3.87,10-3.11t9,5.68l11,14Q377.91,389.06,367.48,397.29Zm-5.06-6.41a2.06,2.06,0,0,0,.9-1.94,4.69,4.69,0,0,0-1.06-2.28l-13.44-17q-2.4-3-4.36-1.5t.45,4.58l13.45,17a4.63,4.63,0,0,0,2,1.55A2,2,0,0,0,362.42,390.88Z"/><path class="cls-2" d="M397,368.21q-8.29,10.2-18.63,1.79l-2.73-2.23,6.72-8.26,4,3.29a4.12,4.12,0,0,0,2.21,1,2.12,2.12,0,0,0,1.87-.93c1-1.19.56-2.52-1.23-4a6.63,6.63,0,0,0-4.13-1.8,18.61,18.61,0,0,0-4,.55l-6.94,1.64a16.55,16.55,0,0,1-6,.38,12.48,12.48,0,0,1-5.86-3,10.32,10.32,0,0,1-3.74-5.39,11,11,0,0,1,.17-6.08,17.2,17.2,0,0,1,3.16-5.8q8.15-10,18.14-1.89l.64.53-6.91,8.49-1.31-1.06a7.26,7.26,0,0,0-2.29-1.27,1.74,1.74,0,0,0-2.09.6,2,2,0,0,0,.41,3.24,4.39,4.39,0,0,0,4.11.91l7.87-2.08a21.62,21.62,0,0,1,7.35-.68,14.21,14.21,0,0,1,7.61,3.51q4.86,4,5.16,8.8C400.84,361.77,399.63,365,397,368.21Z"/><path class="cls-2" d="M419.35,333.72a14,14,0,0,1-5,5.95A9.79,9.79,0,0,1,408,341a23.91,23.91,0,0,1-7.74-2.52l-16-8q-5.54-2.78-6.79-7.38T379,312.93q5.73-11.43,16.95-5.81l2.88,1.44q5.25,2.63,7,3.64L399,326l7.68,3.84a16.55,16.55,0,0,0,2.14.91,4.17,4.17,0,0,0,2,.25,2.23,2.23,0,0,0,1.05-3.66,13.6,13.6,0,0,0-3.16-2.05l-3.81-1.91,4.72-9.42,2.25,1.13a24.59,24.59,0,0,1,6.9,4.82,9.46,9.46,0,0,1,2.67,6A15.86,15.86,0,0,1,419.35,333.72Zm-25.12-10.07,2.25-4.5-5.34-2.67a7.39,7.39,0,0,0-3.35-1,1.93,1.93,0,0,0-1.74,1.12,2.26,2.26,0,0,0,0,2.21,6.45,6.45,0,0,0,2.81,2.19Z"/><path class="cls-3" d="M250.91,17.69c128.21,0,232.15,103.93,232.15,232.14S379.12,482,250.91,482,18.77,378,18.77,249.83,122.7,17.69,250.91,17.69ZM464.62,249.83c0-118-95.68-213.71-213.71-213.71S37.2,131.8,37.2,249.83s95.68,213.71,213.71,213.71S464.62,367.86,464.62,249.83Z"/><path class="cls-2" d="M118.31,273.9q1.92,11.13-14,13.89L88,290.61q-14.57,2.5-16.76-10.25-.91-5.25.51-8.39a9.84,9.84,0,0,1,4.78-4.81,30.43,30.43,0,0,1,8.35-2.54l1.76,10.16-2.37.41a7.59,7.59,0,0,0-2.74.95,1.88,1.88,0,0,0-.81,2.1,2.41,2.41,0,0,0,1.62,2.17,6.24,6.24,0,0,0,2.76.11l19.11-3.3a9.19,9.19,0,0,0,3.32-1.13,2.13,2.13,0,0,0,.94-2.37,2.19,2.19,0,0,0-1.69-2,9.34,9.34,0,0,0-3.56.06l-3.73.64.48,2.78-9,1.55-2.19-12.7,26.58-4.59.72,4.16L112,266.17A9.25,9.25,0,0,1,118.31,273.9Z"/><path class="cls-2" d="M69.05,241.31l-6.66-.53L57,226.07l10.37.82Zm47.41-2.8a14.15,14.15,0,0,1-2.41,7.47,9.83,9.83,0,0,1-5.49,3.65,23.94,23.94,0,0,1-8.22.58l-18-1.44q-6.24-.5-9.17-4.34t-2.42-10.11q1-12.91,13.69-11.9l3.26.26q5.91.48,7.94.75L94.38,239l8.66.69a17,17,0,0,0,2.36,0,4.18,4.18,0,0,0,1.95-.52,1.91,1.91,0,0,0,.88-1.63,2,2,0,0,0-1.28-2.21,14.48,14.48,0,0,0-3.75-.72l-4.3-.34.85-10.64,2.54.21a24.47,24.47,0,0,1,8.31,1.91,9.51,9.51,0,0,1,4.78,4.59A15.94,15.94,0,0,1,116.46,238.51Zm-27.4.1.4-5.08-6-.48a7.52,7.52,0,0,0-3.52.31,2,2,0,0,0-1.21,1.71,2.3,2.3,0,0,0,.86,2.07,6.6,6.6,0,0,0,3.47,1Z"/><path class="cls-2" d="M118.74,217,76.29,202.19l3.53-10.13,5.4,1.88a9.8,9.8,0,0,1-3.41-3.55,5.85,5.85,0,0,1-.22-4.89q1.55-4.41,5-5.46t8.14.6l32.75,11.41L124,202l-31.7-11a5.59,5.59,0,0,0-2.48-.29,1.89,1.89,0,0,0-1.68,1.38,2.05,2.05,0,0,0,.21,2,4.69,4.69,0,0,0,1.77,1.39,21.48,21.48,0,0,0,2.34,1l29.86,10.4Z"/><path class="cls-2" d="M96,153.48l-5.55-3.72L93,134.3l8.64,5.79Zm42.72,20.75a14.14,14.14,0,0,1-5.76,5.35,9.88,9.88,0,0,1-6.57.49,24.08,24.08,0,0,1-7.46-3.52l-15-10.07q-5.19-3.48-5.87-8.27t2.83-10q7.22-10.75,17.77-3.67l2.71,1.82c3.29,2.2,5.47,3.72,6.56,4.54l-8.68,12.94,7.21,4.85a19.19,19.19,0,0,0,2,1.18,4.1,4.1,0,0,0,2,.5,1.9,1.9,0,0,0,1.56-1,1.94,1.94,0,0,0,0-2.55,14.36,14.36,0,0,0-2.92-2.46l-3.58-2.4,5.94-8.87,2.12,1.42a24.9,24.9,0,0,1,6.31,5.74,9.5,9.5,0,0,1,1.92,6.34A16,16,0,0,1,138.73,174.23Zm-23.95-13.32,2.84-4.23-5-3.37a7.36,7.36,0,0,0-3.23-1.45,2,2,0,0,0-1.89.9,2.28,2.28,0,0,0-.26,2.22,6.53,6.53,0,0,0,2.54,2.56Z"/><path class="cls-2" d="M151.39,157l-31-32.55,7.9-7.52,3.45,3.62a7.64,7.64,0,0,1-.81-4.85,8.12,8.12,0,0,1,2.59-4.5l6.18,6.49a20.43,20.43,0,0,0-2.08,2.37,17.37,17.37,0,0,0-1.79,2.78c-.44.87-.52,1.46-.24,1.74l23.72,24.89Z"/><path class="cls-2" d="M177.34,136a8.41,8.41,0,0,1-5.79,1.47,9,9,0,0,1-4.76-2.69,30.16,30.16,0,0,1-4.16-5.5,23.29,23.29,0,0,1-2.79-6.18A9,9,0,0,1,160,118a16.36,16.36,0,0,1,3.15-5.23l4.52-5.4-2.39-3.95c-1.25-2.06-2.55-2.69-3.9-1.87s-1.34,2-.33,3.63l1.4,2.31-8.93,5.39a3.73,3.73,0,0,1-.34-.51l-.45-.73q-3.47-5.75-2.21-9.78t7.13-7.59A15.69,15.69,0,0,1,163.81,92a10.44,10.44,0,0,1,5.81.89,10.82,10.82,0,0,1,4.6,4.39l17.72,29.32-9.13,5.52-2.76-4.56a8.26,8.26,0,0,1,0,5A6.23,6.23,0,0,1,177.34,136Zm-.69-9.32a1.78,1.78,0,0,0,1-1.88,6,6,0,0,0-.83-2.3l-6.48-10.72a9.16,9.16,0,0,0-1.78,3.72,5.8,5.8,0,0,0,1,4.06l3,5Q174.6,127.9,176.65,126.65Z"/><path class="cls-2" d="M208.5,121q-4.11,1.42-6.14.18c-1.36-.83-2.45-2.44-3.29-4.84l-9.2-26.47-2.86,1-2.69-7.72,2.86-1-3.13-9,9.85-3.43,3.13,9,2.86-1,2.69,7.73-2.86,1,8.38,24.09a2.47,2.47,0,0,0,.85,1.35,1.66,1.66,0,0,0,1.45,0,6.84,6.84,0,0,0,1.18-.53l2.4,6.9c-.2.16-.86.55-2,1.18A22.19,22.19,0,0,1,208.5,121Z"/><path class="cls-2" d="M212.45,70l-1.61-8.79,10.55-1.94L223,68.09ZM221.07,117,213,72.74,223.5,70.8,231.63,115Z"/><path class="cls-2" d="M252.85,114.26q-13.42-.2-13.23-14.13l.26-18q.09-6.36,3.71-10.1t9.92-3.65q6.32.09,9.83,3.94t3.43,10.19l-.26,18Q266.3,114.45,252.85,114.26ZM253,106a2.07,2.07,0,0,0,1.95-.94,4.82,4.82,0,0,0,.62-2.47l.31-22q.06-3.93-2.46-4t-2.58,3.89l-.31,22a4.77,4.77,0,0,0,.55,2.48A2.06,2.06,0,0,0,253,106Z"/><path class="cls-2" d="M274.54,115.17l12-43.32,10.34,2.87-1.53,5.52a9.77,9.77,0,0,1,3.33-3.64,5.8,5.8,0,0,1,4.86-.53c3,.84,4.93,2.36,5.77,4.59a13.11,13.11,0,0,1-.07,8.16L300,122.24l-10.2-2.83,9-32.35a5.6,5.6,0,0,0,.13-2.5A1.9,1.9,0,0,0,297.41,83a2,2,0,0,0-2,.34,4.68,4.68,0,0,0-1.27,1.85,21.29,21.29,0,0,0-.83,2.4L284.87,118Z"/></svg>